<?xml version="1.0" encoding="UTF-8"?>
<svg version="1.1" xmlns="http://www.w3.org/2000/svg" width="850" height="850">
<path d="M0 0 C1.11302703 0.85710107 2.22632172 1.71385462 3.33984375 2.5703125 C23.10536484 17.85117332 42.79819853 34.6110054 59.01953125 53.68359375 C60.59967 55.53176393 62.2017619 57.34957305 63.82421875 59.16015625 C77.34858033 74.34924721 89.02621325 90.89847025 100 108 C100.38430176 108.59603027 100.76860352 109.19206055 101.16455078 109.80615234 C106.69194261 118.4601997 111.45433976 127.51964101 116.1875 136.625 C117.06124268 138.30517212 117.06124268 138.30517212 117.95263672 140.01928711 C145.17378272 192.90021818 161.50527772 252.40808783 163 312 C163.02723145 312.95374512 163.05446289 313.90749023 163.08251953 314.89013672 C164.97435154 391.33680752 145.99375941 471.77165804 105.28759766 536.93701172 C103.88823434 539.17907088 102.5128043 541.43499352 101.13671875 543.69140625 C95.04853187 553.58806684 88.52541624 563.002031 81.40527344 572.18164062 C80.07122473 573.90783847 78.75524825 575.64608917 77.4453125 577.390625 C71.29319509 585.55314251 64.75321075 593.33140996 58 601 C57.19691406 601.91652344 56.39382813 602.83304688 55.56640625 603.77734375 C49.72991304 610.28620098 43.60972748 616.51661138 37.45355225 622.72167969 C36.04332142 624.14381295 34.63707405 625.56989288 33.23095703 626.99609375 C27.9124772 632.32123 22.43705636 637.24217987 16.55712891 641.93945312 C14.27868484 643.77543441 12.08070178 645.66504432 9.8984375 647.61328125 C5.64439211 651.36932895 1.17069478 654.79358448 -3.375 658.1875 C-4.24278076 658.83605957 -5.11056152 659.48461914 -6.00463867 660.15283203 C-60.09780624 700.2520652 -122.23001858 726.26309018 -188.625 737.25 C-189.74261719 737.43772476 -189.74261719 737.43772476 -190.8828125 737.62924194 C-212.70017377 741.25653485 -234.40239531 742.38022958 -256.5 742.3125 C-257.67744781 742.31134186 -258.85489563 742.31018372 -260.06802368 742.30899048 C-278.56482903 742.27311451 -296.66616328 741.54594526 -315 739 C-315.8780127 738.88785156 -316.75602539 738.77570312 -317.66064453 738.66015625 C-388.53293098 729.57504416 -459.17085828 699.58151244 -515 655 C-515.78632812 654.37609375 -516.57265625 653.7521875 -517.3828125 653.109375 C-519.06478816 651.77012165 -520.74309861 650.42625396 -522.41796875 649.078125 C-524.12284209 647.70597278 -525.83369592 646.34121425 -527.55078125 644.984375 C-538.86683988 635.93152809 -549.23630075 625.83831054 -559.5 615.625 C-560.14606201 614.98361084 -560.79212402 614.34222168 -561.45776367 613.68139648 C-565.84011923 609.28429125 -569.94957404 604.70251066 -574 600 C-574.92580598 598.9519952 -575.85280934 597.90504641 -576.78125 596.859375 C-593.50194773 577.82932347 -608.38619797 556.96663409 -621 535 C-621.58515381 533.98413818 -621.58515381 533.98413818 -622.18212891 532.94775391 C-658.68337857 469.25064766 -677.19989523 399.82698367 -677.25 326.4375 C-677.25100708 325.40664276 -677.25201416 324.37578552 -677.25305176 323.31369019 C-677.19751165 238.80206771 -650.12672945 155.75749153 -601 87 C-600.58266602 86.41541016 -600.16533203 85.83082031 -599.73535156 85.22851562 C-594.38259823 77.78939993 -588.55226293 70.81740519 -582.57641602 63.87963867 C-581.40373761 62.48139629 -580.25713994 61.06119743 -579.12475586 59.63012695 C-573.29568528 52.29949741 -566.96377411 45.65463027 -560.32250977 39.06176758 C-558.53352031 37.28369718 -556.75572384 35.49491649 -554.97851562 33.70507812 C-553.84178815 32.56966907 -552.70444215 31.43487884 -551.56640625 30.30078125 C-551.03624405 29.76657059 -550.50608185 29.23235992 -549.95985413 28.68196106 C-546.23003617 25 -546.23003617 25 -544 25 C-543.67 24.01 -543.34 23.02 -543 22 C-540.91796875 20.08984375 -540.91796875 20.08984375 -538.1875 17.9375 C-536.67929687 16.73673828 -536.67929687 16.73673828 -535.140625 15.51171875 C-534.61662109 15.09583496 -534.09261719 14.67995117 -533.55273438 14.25146484 C-531.13620253 12.30380097 -528.79504295 10.2683992 -526.4375 8.25 C-502.42721036 -11.74312406 -475.15165974 -28.52583562 -447.01318359 -42.02587891 C-444.91118889 -43.04297312 -442.82489749 -44.08847273 -440.73828125 -45.13671875 C-400.59534856 -65.04841876 -354.57875314 -77.35693368 -310 -82 C-309.15195801 -82.09474609 -308.30391602 -82.18949219 -307.43017578 -82.28710938 C-211.82313553 -92.9319433 -111.92316836 -73.31858643 0 0 Z " fill="#FEFEFE" transform="translate(683,90)"/>
<path d="M0 0 C4.45337163 2.74053639 7.30464911 7.31238484 8.9296875 12.1875 C8.9296875 22.7475 8.9296875 33.3075 8.9296875 44.1875 C73.9396875 44.1875 138.9496875 44.1875 205.9296875 44.1875 C205.9296875 33.2975 205.9296875 22.4075 205.9296875 11.1875 C212.35848905 0.90141753 212.35848905 0.90141753 218.9296875 -1.8125 C224.3732882 -2.57651413 228.12003406 -1.39546203 232.9296875 1.1875 C237.05674215 4.56418108 239.33309204 8.13981868 240.9296875 13.1875 C241.27026367 16.82788086 241.27026367 16.82788086 241.22265625 20.65234375 C241.21841141 21.33051651 241.21416656 22.00868927 241.20979309 22.70741272 C241.19316691 24.84703402 241.15554924 26.98566947 241.1171875 29.125 C241.10211972 30.58657482 241.088435 32.04816458 241.07617188 33.50976562 C241.04331727 37.06932397 240.99164991 40.62831556 240.9296875 44.1875 C241.88633301 44.17178955 242.84297852 44.1560791 243.82861328 44.13989258 C247.44799048 44.0847459 251.06733237 44.05084897 254.68701172 44.02270508 C256.24046108 44.00780811 257.79386985 43.98748349 259.34716797 43.96118164 C281.07190933 43.60308151 300.99937074 48.51487179 317.1796875 63.9375 C330.2997837 77.70216511 336.24250856 94.05106637 336.20384216 112.80393982 C336.20907884 114.06468183 336.21431552 115.32542384 336.21971089 116.62437016 C336.23383088 120.10798442 336.23555532 123.59150921 336.23511398 127.07514799 C336.23676757 130.83884914 336.24984438 134.602514 336.26130676 138.36619568 C336.2841166 146.58974114 336.29207344 154.81326072 336.29713321 163.03683352 C336.30039571 168.1782213 336.30692163 173.31960163 336.3141346 178.46098518 C336.33369736 192.71421663 336.35010278 206.96744118 336.35301113 221.22068691 C336.3531987 222.13208888 336.35338627 223.04349084 336.35357952 223.98251105 C336.35394576 225.82992144 336.35430946 227.67733184 336.35467064 229.52474224 C336.35485345 230.44172134 336.35503626 231.35870045 336.35522461 232.3034668 C336.35549543 233.68062773 336.35549543 233.68062773 336.35577173 235.0856101 C336.35930984 249.94669292 336.38631095 264.80763052 336.4237225 279.66866302 C336.46188247 294.95016381 336.48116918 310.23159271 336.48147064 325.51314217 C336.48205358 334.08345911 336.49043903 342.65360291 336.51946831 351.22387505 C336.54408561 358.52489114 336.55119596 365.82567098 336.53622078 373.12671744 C336.52909317 376.84541633 336.52972719 380.56364971 336.55263138 384.28229523 C336.69295732 408.52619557 334.6900943 428.56507097 317.15625 446.94921875 C316.42148437 447.68785156 315.68671875 448.42648437 314.9296875 449.1875 C314.33929687 449.81269531 313.74890625 450.43789063 313.140625 451.08203125 C308.97049205 455.15112573 304.26487485 457.80727718 299.1171875 460.4375 C298.15800415 460.9317749 298.15800415 460.9317749 297.17944336 461.43603516 C286.82626815 466.48667958 276.96256011 467.62846414 265.53436279 467.58190918 C264.104249 467.58680706 262.67413917 467.59300099 261.24403596 467.60036707 C257.34144156 467.61667622 253.43905037 467.61446722 249.53643394 467.6089921 C245.31678054 467.60631068 241.09717995 467.62087452 236.87754822 467.63308716 C228.62090577 467.65409689 220.36433362 467.65868456 212.1076676 467.65689927 C205.39275618 467.65558934 198.6778666 467.65940757 191.96295929 467.66682434 C190.02541741 467.66892364 188.08787553 467.67102124 186.15033364 467.67311716 C185.18582379 467.67416069 184.22131394 467.67520422 183.22757652 467.67627937 C165.00354953 467.69516393 146.77956282 467.69413708 128.5555301 467.68731004 C111.90529418 467.68173652 95.25521222 467.70255507 78.60501227 467.73567051 C61.4860205 467.76945258 44.36710238 467.78457018 27.24807668 467.77995348 C17.6461294 467.77771328 8.0443244 467.78288603 -1.5575943 467.80784607 C-9.73291807 467.82891767 -17.90802156 467.83239333 -26.08335456 467.81354648 C-30.24938499 467.80442443 -34.41500536 467.80313623 -38.58100319 467.82390213 C-42.4045793 467.84274935 -46.22741347 467.83795737 -50.05096254 467.81535631 C-52.06842823 467.80925808 -54.08592387 467.82745173 -56.1033051 467.84689283 C-73.83982915 467.67691213 -89.6426567 460.46623464 -102.2734375 448.11328125 C-117.50010334 432.56121515 -122.22089652 413.98792782 -122.21748352 392.86804199 C-122.22116021 391.63926283 -122.2248369 390.41048368 -122.228625 389.14446878 C-122.23770654 385.7501446 -122.2423515 382.35586858 -122.24501431 378.96153688 C-122.24893618 375.29398133 -122.258513 371.62643953 -122.26722717 367.95889282 C-122.28693696 359.11076104 -122.29705007 350.2626282 -122.30595496 341.41447997 C-122.31034621 337.24049668 -122.31571078 333.06651465 -122.32094383 328.89253235 C-122.33794939 315.00559503 -122.35244217 301.11865847 -122.35969257 287.23171234 C-122.36160224 283.63266499 -122.36352261 280.03361764 -122.36547852 276.43457031 C-122.36596226 275.54012563 -122.366446 274.64568095 -122.3669444 273.72413188 C-122.37523974 259.24392413 -122.4005713 244.7637991 -122.43305919 230.28362745 C-122.46619107 215.39425189 -122.4841468 200.5049183 -122.48733681 185.6155057 C-122.48949606 177.26489403 -122.49815885 168.91440309 -122.52379799 160.56382751 C-122.54558879 153.45055802 -122.55351441 146.3374386 -122.54383121 139.22413951 C-122.53931083 135.60080759 -122.54103913 131.97778478 -122.56059265 128.354496 C-122.68480674 103.9987818 -120.78713898 82.61151886 -103.27905273 64.19799805 C-91.15179023 52.06239349 -74.40111364 44.57614091 -57.17626953 44.07397461 C-55.72687838 44.07413094 -54.27748039 44.07966081 -52.828125 44.08984375 C-52.05975311 44.0912587 -51.29138123 44.09267365 -50.49972534 44.09413147 C-48.06488011 44.09969317 -45.63012956 44.1122384 -43.1953125 44.125 C-41.53645967 44.13001996 -39.87760538 44.13458199 -38.21875 44.13867188 C-34.1692348 44.14965002 -30.11978966 44.16688794 -26.0703125 44.1875 C-26.09649658 43.22972656 -26.12268066 42.27195313 -26.1496582 41.28515625 C-26.24080377 37.69962326 -26.29779171 34.11419058 -26.3449707 30.52783203 C-26.36996982 28.98175788 -26.40398152 27.43580018 -26.44750977 25.89013672 C-26.8772827 10.22617718 -26.8772827 10.22617718 -22.41381836 4.5625 C-15.82738918 -2.17832667 -8.79232397 -3.55798324 0 0 Z " fill="#FEFEFE" transform="translate(318.0703125,173.8125)"/>
<path d="M0 0 C4.45337163 2.74053639 7.30464911 7.31238484 8.9296875 12.1875 C8.9296875 22.7475 8.9296875 33.3075 8.9296875 44.1875 C73.9396875 44.1875 138.9496875 44.1875 205.9296875 44.1875 C205.9296875 33.2975 205.9296875 22.4075 205.9296875 11.1875 C212.35848905 0.90141753 212.35848905 0.90141753 218.9296875 -1.8125 C224.3732882 -2.57651413 228.12003406 -1.39546203 232.9296875 1.1875 C237.05674215 4.56418108 239.33309204 8.13981868 240.9296875 13.1875 C241.27026367 16.82788086 241.27026367 16.82788086 241.22265625 20.65234375 C241.21841141 21.33051651 241.21416656 22.00868927 241.20979309 22.70741272 C241.19316691 24.84703402 241.15554924 26.98566947 241.1171875 29.125 C241.10211972 30.58657482 241.088435 32.04816458 241.07617188 33.50976562 C241.04331727 37.06932397 240.99164991 40.62831556 240.9296875 44.1875 C241.88633301 44.17178955 242.84297852 44.1560791 243.82861328 44.13989258 C247.44799048 44.0847459 251.06733237 44.05084897 254.68701172 44.02270508 C256.24046108 44.00780811 257.79386985 43.98748349 259.34716797 43.96118164 C281.07190933 43.60308151 300.99937074 48.51487179 317.1796875 63.9375 C330.2997837 77.70216511 336.24250856 94.05106637 336.20384216 112.80393982 C336.20907884 114.06468183 336.21431552 115.32542384 336.21971089 116.62437016 C336.23383088 120.10798442 336.23555532 123.59150921 336.23511398 127.07514799 C336.23676757 130.83884914 336.24984438 134.602514 336.26130676 138.36619568 C336.2841166 146.58974114 336.29207344 154.81326072 336.29713321 163.03683352 C336.30039571 168.1782213 336.30692163 173.31960163 336.3141346 178.46098518 C336.33369736 192.71421663 336.35010278 206.96744118 336.35301113 221.22068691 C336.3531987 222.13208888 336.35338627 223.04349084 336.35357952 223.98251105 C336.35394576 225.82992144 336.35430946 227.67733184 336.35467064 229.52474224 C336.35485345 230.44172134 336.35503626 231.35870045 336.35522461 232.3034668 C336.35549543 233.68062773 336.35549543 233.68062773 336.35577173 235.0856101 C336.35930984 249.94669292 336.38631095 264.80763052 336.4237225 279.66866302 C336.46188247 294.95016381 336.48116918 310.23159271 336.48147064 325.51314217 C336.48205358 334.08345911 336.49043903 342.65360291 336.51946831 351.22387505 C336.54408561 358.52489114 336.55119596 365.82567098 336.53622078 373.12671744 C336.52909317 376.84541633 336.52972719 380.56364971 336.55263138 384.28229523 C336.69295732 408.52619557 334.6900943 428.56507097 317.15625 446.94921875 C316.42148437 447.68785156 315.68671875 448.42648437 314.9296875 449.1875 C314.33929687 449.81269531 313.74890625 450.43789063 313.140625 451.08203125 C308.97049205 455.15112573 304.26487485 457.80727718 299.1171875 460.4375 C298.15800415 460.9317749 298.15800415 460.9317749 297.17944336 461.43603516 C286.82626815 466.48667958 276.96256011 467.62846414 265.53436279 467.58190918 C264.104249 467.58680706 262.67413917 467.59300099 261.24403596 467.60036707 C257.34144156 467.61667622 253.43905037 467.61446722 249.53643394 467.6089921 C245.31678054 467.60631068 241.09717995 467.62087452 236.87754822 467.63308716 C228.62090577 467.65409689 220.36433362 467.65868456 212.1076676 467.65689927 C205.39275618 467.65558934 198.6778666 467.65940757 191.96295929 467.66682434 C190.02541741 467.66892364 188.08787553 467.67102124 186.15033364 467.67311716 C185.18582379 467.67416069 184.22131394 467.67520422 183.22757652 467.67627937 C165.00354953 467.69516393 146.77956282 467.69413708 128.5555301 467.68731004 C111.90529418 467.68173652 95.25521222 467.70255507 78.60501227 467.73567051 C61.4860205 467.76945258 44.36710238 467.78457018 27.24807668 467.77995348 C17.6461294 467.77771328 8.0443244 467.78288603 -1.5575943 467.80784607 C-9.73291807 467.82891767 -17.90802156 467.83239333 -26.08335456 467.81354648 C-30.24938499 467.80442443 -34.41500536 467.80313623 -38.58100319 467.82390213 C-42.4045793 467.84274935 -46.22741347 467.83795737 -50.05096254 467.81535631 C-52.06842823 467.80925808 -54.08592387 467.82745173 -56.1033051 467.84689283 C-73.83982915 467.67691213 -89.6426567 460.46623464 -102.2734375 448.11328125 C-117.50010334 432.56121515 -122.22089652 413.98792782 -122.21748352 392.86804199 C-122.22116021 391.63926283 -122.2248369 390.41048368 -122.228625 389.14446878 C-122.23770654 385.7501446 -122.2423515 382.35586858 -122.24501431 378.96153688 C-122.24893618 375.29398133 -122.258513 371.62643953 -122.26722717 367.95889282 C-122.28693696 359.11076104 -122.29705007 350.2626282 -122.30595496 341.41447997 C-122.31034621 337.24049668 -122.31571078 333.06651465 -122.32094383 328.89253235 C-122.33794939 315.00559503 -122.35244217 301.11865847 -122.35969257 287.23171234 C-122.36160224 283.63266499 -122.36352261 280.03361764 -122.36547852 276.43457031 C-122.36596226 275.54012563 -122.366446 274.64568095 -122.3669444 273.72413188 C-122.37523974 259.24392413 -122.4005713 244.7637991 -122.43305919 230.28362745 C-122.46619107 215.39425189 -122.4841468 200.5049183 -122.48733681 185.6155057 C-122.48949606 177.26489403 -122.49815885 168.91440309 -122.52379799 160.56382751 C-122.54558879 153.45055802 -122.55351441 146.3374386 -122.54383121 139.22413951 C-122.53931083 135.60080759 -122.54103913 131.97778478 -122.56059265 128.354496 C-122.68480674 103.9987818 -120.78713898 82.61151886 -103.27905273 64.19799805 C-91.15179023 52.06239349 -74.40111364 44.57614091 -57.17626953 44.07397461 C-55.72687838 44.07413094 -54.27748039 44.07966081 -52.828125 44.08984375 C-52.05975311 44.0912587 -51.29138123 44.09267365 -50.49972534 44.09413147 C-48.06488011 44.09969317 -45.63012956 44.1122384 -43.1953125 44.125 C-41.53645967 44.13001996 -39.87760538 44.13458199 -38.21875 44.13867188 C-34.1692348 44.14965002 -30.11978966 44.16688794 -26.0703125 44.1875 C-26.09649658 43.22972656 -26.12268066 42.27195313 -26.1496582 41.28515625 C-26.24080377 37.69962326 -26.29779171 34.11419058 -26.3449707 30.52783203 C-26.36996982 28.98175788 -26.40398152 27.43580018 -26.44750977 25.89013672 C-26.8772827 10.22617718 -26.8772827 10.22617718 -22.41381836 4.5625 C-15.82738918 -2.17832667 -8.79232397 -3.55798324 0 0 Z M-82.3203125 91.5 C-87.62375178 99.64456746 -88.65184664 107.26761559 -88.57151794 116.83253479 C-88.57705234 118.07204531 -88.58258674 119.31155583 -88.58828884 120.58862728 C-88.59949167 124.00365801 -88.59291554 127.4177897 -88.57855213 130.83275068 C-88.56739612 134.52537376 -88.57940011 138.21793403 -88.58839417 141.91055298 C-88.60229686 149.13397777 -88.59479269 156.35722723 -88.57971858 163.5806436 C-88.56282281 171.99870366 -88.56607321 180.41672047 -88.56981266 188.83479225 C-88.57568571 203.8575889 -88.56154102 218.88030163 -88.53686523 233.90307617 C-88.51294182 248.46951441 -88.50586336 263.03584056 -88.51635742 277.60229492 C-88.52777453 293.47835458 -88.52968723 309.35436244 -88.51525933 325.23042148 C-88.51373354 326.92422831 -88.51221318 328.61803513 -88.51069832 330.31184196 C-88.5099405 331.14515109 -88.50918269 331.97846021 -88.50840191 332.83702113 C-88.50366555 338.70042776 -88.50550589 344.56381121 -88.50976372 350.42721748 C-88.51469749 357.57504377 -88.50867426 364.72276422 -88.48886942 371.87056632 C-88.4790186 375.51525616 -88.47386832 379.15978507 -88.48176193 382.80448341 C-88.49015236 386.75957363 -88.47519854 390.71438282 -88.45799255 394.66944885 C-88.4640026 395.81536942 -88.47001264 396.96128998 -88.47620481 398.14193541 C-88.38475304 409.70591218 -85.3831539 417.48784234 -77.4765625 425.87890625 C-68.97835245 433.87604259 -59.38053079 434.77406749 -48.14796448 434.69543457 C-46.7571092 434.70005089 -45.36625881 434.7064087 -43.97541851 434.71434355 C-40.17678386 434.73096011 -36.3785539 434.72282582 -32.57991827 434.71039867 C-28.47416031 434.70131876 -24.36847015 434.7153325 -20.26272583 434.72631836 C-12.22850641 434.74407735 -4.19443672 434.74027517 3.83978849 434.7286678 C10.37169562 434.71962279 16.90356089 434.71841409 23.43547249 434.72276306 C24.83162132 434.72368246 24.83162132 434.72368246 26.25597518 434.72462043 C28.1470058 434.72589938 30.03803642 434.72719623 31.92906702 434.7285108 C49.64939001 434.73990908 67.36963014 434.72681502 85.08993954 434.70530933 C100.2824133 434.68744198 115.47476478 434.69054092 130.66723633 434.70898438 C148.32394852 434.73040945 165.98058814 434.73880742 183.63731152 434.72653532 C185.52156992 434.72526117 187.40582833 434.72400369 189.29008675 434.72276306 C190.2170942 434.72214596 191.14410165 434.72152886 192.09920023 434.72089306 C198.61991243 434.71744485 205.14057845 434.72325714 211.66128349 434.73268127 C219.6127556 434.74392096 227.56406985 434.74082001 235.51552396 434.7195583 C239.56960297 434.70907386 243.62341913 434.70488123 247.67749596 434.71815491 C251.39412189 434.73013929 255.1102432 434.72341788 258.82682384 434.7022447 C260.79657473 434.69571241 262.7663611 434.70866059 264.73607439 434.72247362 C275.53743245 434.62776517 284.5208063 432.25813376 292.921875 425.2421875 C301.82067228 416.1356362 303.23068477 406.18103355 303.19038391 394.02384949 C303.19420946 392.79985846 303.19803501 391.57586744 303.20197648 390.31478578 C303.21049413 386.92936053 303.21007879 383.54415309 303.20579588 380.1587342 C303.20332572 376.50286019 303.21234649 372.84701153 303.21983337 369.19114685 C303.23257478 362.0332017 303.23437472 354.87529406 303.23203311 347.71733948 C303.230249 341.8976029 303.23200159 336.07787769 303.23625755 330.25814247 C303.23715034 329.0149834 303.23715034 329.0149834 303.23806116 327.74671001 C303.23927293 326.06295806 303.24048706 324.37920611 303.24170353 322.69545416 C303.25257713 306.90900128 303.25041756 291.12256977 303.24431869 275.3361157 C303.23915092 260.90353584 303.2504016 246.4710235 303.26941691 232.038457 C303.28880342 217.21015799 303.2970498 202.38189091 303.29329365 187.55357915 C303.29138269 179.23223703 303.29385889 170.91095236 303.30800819 162.58962059 C303.31993341 155.50471123 303.32131419 148.41989469 303.30921803 141.33498403 C303.30333704 137.72258586 303.30220811 134.11035736 303.31422043 130.49797058 C303.32711046 126.57593056 303.31659602 122.65414641 303.3039093 118.73210144 C303.31128359 117.5987202 303.31865787 116.46533897 303.32625562 115.29761285 C303.24536429 103.39255165 300.4331031 95.22879207 292.37109375 86.5 C283.14705819 77.65200426 271.71669942 77.64155064 259.71899414 77.88574219 C258.90164795 77.90282227 258.08430176 77.91990234 257.2421875 77.9375 C255.55796407 77.95760626 253.87371733 77.9758497 252.18945312 77.9921875 C248.10227892 78.03583277 244.01624679 78.10462773 239.9296875 78.1875 C239.91510498 78.88311035 239.90052246 79.5787207 239.88549805 80.29541016 C239.81070781 83.46831338 239.71414938 86.64020008 239.6171875 89.8125 C239.59462891 90.90691406 239.57207031 92.00132812 239.54882812 93.12890625 C239.20745658 103.37005246 239.20745658 103.37005246 235.9296875 108.1875 C231.19084057 112.57093341 227.48290789 113.49397968 221.2109375 113.40234375 C216.57442289 112.9656857 213.77956931 111.10820529 210.6796875 107.75 C203.79097395 97.66295516 206.64334868 94.60170718 205.9296875 78.1875 C140.9196875 78.1875 75.9096875 78.1875 8.9296875 78.1875 C8.5996875 85.1175 8.2696875 92.0475 7.9296875 99.1875 C4.48758224 108.36644737 4.48758224 108.36644737 -1.0703125 112.1875 C-5.42080915 113.63766555 -9.52365435 113.69820107 -14.0703125 113.1875 C-18.48102189 110.98214531 -21.31786996 108.26519265 -24.0703125 104.1875 C-25.05124674 101.12080271 -25.25619853 98.19144328 -25.38671875 94.984375 C-25.42861328 94.0046875 -25.47050781 93.025 -25.51367188 92.015625 C-25.55298828 90.99984375 -25.59230469 89.9840625 -25.6328125 88.9375 C-25.67599609 87.90625 -25.71917969 86.875 -25.76367188 85.8125 C-25.86956932 83.2709613 -25.97164693 80.72932804 -26.0703125 78.1875 C-31.01410199 78.08774947 -35.95729072 78.01562098 -40.90185547 77.96777344 C-42.57969381 77.94780301 -44.25746386 77.92061668 -45.93505859 77.88574219 C-61.77593848 77.56496201 -71.03511561 79.90132542 -82.3203125 91.5 Z " fill="#114DD2" transform="translate(318.0703125,173.8125)"/>
<path d="M0 0 C3.95962291 2.63128787 6.32169037 5.50322787 7.765625 10.08984375 C8.62640865 17.29890681 8.07786402 21.13564379 3.765625 27.08984375 C2.07283584 28.96108613 0.32925179 30.78712854 -1.45173645 32.57463074 C-1.96474279 33.09216819 -2.47774912 33.60970564 -3.00630111 34.14292604 C-4.71409196 35.86330391 -6.42887615 37.57652842 -8.14379883 39.28979492 C-9.37479398 40.52677872 -10.60537936 41.76417041 -11.83558655 43.00193787 C-15.16968534 46.3536656 -18.51021048 49.69891576 -21.85249543 53.04247832 C-23.94153606 55.1329424 -26.02914534 57.22482486 -28.11624718 59.3172245 C-35.40064795 66.62011239 -42.69018164 73.91783087 -49.98461914 81.21069336 C-56.77955161 88.00442348 -63.56324146 94.80923763 -70.34176999 101.61933154 C-76.16746673 107.47118603 -82.00085519 113.31529697 -87.84028453 119.15344793 C-91.32547869 122.63813249 -94.80750601 126.12584275 -98.28183937 129.62135887 C-101.54881532 132.90770956 -104.82527217 136.1843034 -108.10921288 139.45369911 C-109.31113162 140.65352804 -110.50965764 141.85676694 -111.70446777 143.06367493 C-113.33921428 144.71389402 -114.98589364 146.35123101 -116.63606262 147.98600769 C-117.55358212 148.90461673 -118.47110163 149.82322577 -119.41642475 150.76967144 C-124.30123548 154.79160284 -129.46947896 156.81578912 -135.84291553 156.47311592 C-142.99859247 155.32629664 -148.62388288 149.13988179 -153.52075195 144.20751953 C-154.19985123 143.53528351 -154.8789505 142.86304749 -155.57862854 142.17044067 C-157.80098556 139.96625074 -160.01221966 137.75129556 -162.22265625 135.53515625 C-163.7730886 133.98928922 -165.32389109 132.44379334 -166.87504578 130.89865112 C-170.11518632 127.6674209 -173.34961975 124.43060711 -176.58032227 121.18994141 C-180.71551315 117.04324039 -184.86638402 112.91264443 -189.02187824 108.78630257 C-192.22455685 105.60198611 -195.41785722 102.4083934 -198.60851097 99.21203232 C-200.13521601 97.68517419 -201.66501789 96.16140595 -203.19799232 94.64084244 C-205.34006203 92.51368698 -207.46893827 90.37412549 -209.5949707 88.23095703 C-210.22616821 87.60942749 -210.85736572 86.98789795 -211.50769043 86.34753418 C-215.99394437 81.78541717 -219.65740898 76.80207785 -219.671875 70.08984375 C-219.47684621 65.51553209 -217.87610406 62.80254405 -215.234375 59.08984375 C-211.09961471 55.34887015 -208.58051708 53.92236334 -203.046875 53.77734375 C-201.66435547 53.72126953 -201.66435547 53.72126953 -200.25390625 53.6640625 C-191.59819351 54.88459638 -186.09114783 61.83210111 -180.26416016 67.77880859 C-178.74494636 69.32905644 -177.21544459 70.86849796 -175.68359375 72.40625 C-171.62523305 76.49727382 -167.59456971 80.59121544 -163.85546875 84.98046875 C-158.5340405 91.18693454 -152.59448692 96.83388473 -146.796875 102.58984375 C-145.5759381 103.80575489 -144.35523308 105.02189891 -143.13476562 106.23828125 C-140.17063487 109.19149341 -137.20338542 112.14153773 -134.234375 115.08984375 C-130.60294271 113.55698667 -128.29513389 111.39269305 -125.52832031 108.61083984 C-124.84139036 107.92435647 -124.84139036 107.92435647 -124.14058304 107.22400475 C-122.60976173 105.6917963 -121.08620529 104.15256393 -119.5625 102.61328125 C-118.46541096 101.51235328 -117.36786523 100.41188023 -116.26989746 99.31182861 C-113.90764396 96.94325487 -111.54853332 94.57160973 -109.19177246 92.1975708 C-105.46568039 88.44444059 -101.73197788 84.69894461 -97.99707031 80.95458984 C-90.07024926 73.00556537 -82.15188982 65.04813598 -74.234375 57.08984375 C-65.6870377 48.49848528 -57.13828495 39.90856565 -48.57973862 31.32837105 C-44.8665545 27.6052155 -41.15830368 23.87723536 -37.45373535 20.14550781 C-35.14915482 17.82601852 -32.84044725 15.51067128 -30.53059387 13.19643402 C-29.45975727 12.12185035 -28.39065254 11.04553765 -27.32341003 9.96738434 C-25.86699846 8.49655364 -24.40454148 7.03200762 -22.94042969 5.56884766 C-22.12338562 4.74736237 -21.30634155 3.92587708 -20.46453857 3.07949829 C-14.87578372 -1.90654471 -6.98595442 -2.84567724 0 0 Z " fill="#2CBB43" transform="translate(534.234375,336.91015625)"/>
<path d="M0 0 C5.44392011 2.81831262 8.9281456 7.6516243 10.828125 13.3515625 C11.36640779 19.70329942 10.50229745 24.07205933 6.828125 29.3515625 C2.54698039 33.98458201 -1.75580215 36.11391599 -7.984375 36.7265625 C-13.92018376 36.55825034 -18.50437999 34.10682041 -22.546875 29.8515625 C-26.54881097 23.69473793 -26.95763897 18.66898949 -26.171875 11.3515625 C-21.20483606 0.84436475 -11.12015879 -3.32004741 0 0 Z " fill="#114BD1" transform="translate(361.171875,530.6484375)"/>
<path d="M0 0 C4.56974891 2.61128509 8.07943163 5.96387471 9.578125 11.125 C10.29953176 16.64827054 10.54989528 22.08866771 7.890625 27.125 C4.47614115 31.55460068 1.02090193 34.60608551 -4.421875 36.125 C-10.76760574 36.74917024 -15.14870328 35.7834746 -20.421875 32.125 C-25.21420276 27.80583878 -27.09445586 23.07177225 -27.796875 16.75 C-27.19799311 10.96080836 -25.14291451 6.75998753 -20.921875 2.75 C-14.43560962 -1.4660725 -7.51066004 -2.71352879 0 0 Z " fill="#124CD1" transform="translate(505.421875,530.875)"/>
<path d="M0 0 C4.58944252 2.59067597 8.07973488 5.95843049 9.58984375 11.1171875 C10.59082273 18.03824214 10.29723574 23.75775253 6.0859375 29.49609375 C1.70529724 34.2427405 -2.47516701 35.834977 -8.66015625 36.4296875 C-14.7168789 35.92496061 -19.34846535 33.67623087 -23.34765625 29.0546875 C-27.25590149 23.48839882 -27.13766202 17.71491222 -26.41015625 11.1171875 C-24.61247286 6.11108263 -21.42771603 2.11686726 -16.55859375 -0.25390625 C-11.11462773 -1.84750358 -5.34917775 -1.95934225 0 0 Z " fill="#114BD1" transform="translate(433.41015625,530.8828125)"/>
<path d="M0 0 C0.33 0.66 0.66 1.32 1 2 C-1.84718858 6.63986288 -4.66559192 11.06370787 -10.15625 12.60546875 C-11.06890625 12.80076172 -11.06890625 12.80076172 -12 13 C-8.19524578 8.43969176 -4.25030379 4.14910608 0 0 Z " fill="#1AB42F" transform="translate(435,419)"/>
</svg>
